<svg width="17" height="17" viewBox="0 0 17 17" fill="none" xmlns="http://www.w3.org/2000/svg">
<path d="M16.3359 6.8969L11.8025 2.36357C10.9197 1.47957 9.48035 1.47957 8.59748 2.36357C8.16908 2.79083 7.93335 3.3609 7.93335 3.9661C7.93335 4.5713 8.16908 5.14137 8.59748 5.56863L11.5283 8.49943L8.59748 11.4302C8.16908 11.8586 7.93335 12.4276 7.93335 13.0328C7.93335 13.638 8.16908 14.2069 8.59748 14.6353C9.02588 15.0637 9.59482 15.2994 10.2 15.2994C10.8052 15.2994 11.3741 15.0637 11.8025 14.6353L16.3359 10.102C16.7643 9.6747 17 9.10463 17 8.49943C17 7.89423 16.7643 7.32417 16.3359 6.8969ZM15.5346 9.3007L11.0013 13.834C10.5717 14.2624 9.82828 14.2624 9.39875 13.834C8.95675 13.392 8.95675 12.6735 9.39875 12.2315L13.1308 8.49943L9.39875 4.76737C9.18455 4.55317 9.06668 4.2687 9.06668 3.9661C9.06668 3.6635 9.18455 3.37903 9.39875 3.16483C9.61975 2.94383 9.90988 2.83277 10.2 2.83277C10.4901 2.83277 10.7803 2.94383 11.0013 3.1637L15.5346 7.69703C15.7488 7.91237 15.8667 8.19683 15.8667 8.49943C15.8667 8.80203 15.7488 9.0865 15.5346 9.3007Z" fill="#FF7C02"/>
<path d="M8.40253 6.8969L3.8692 2.36357C2.98633 1.47957 1.547 1.47957 0.664133 2.36357C0.235733 2.79083 0 3.3609 0 3.9661C0 4.5713 0.235733 5.14137 0.664133 5.56863L3.59493 8.49943L0.664133 11.4302C0.235733 11.8586 0 12.4276 0 13.0328C0 13.638 0.235733 14.2069 0.664133 14.6353C1.09253 15.0637 1.66147 15.2994 2.26667 15.2994C2.87187 15.2994 3.4408 15.0637 3.8692 14.6353L8.40253 10.102C8.83093 9.6747 9.06667 9.10463 9.06667 8.49943C9.06667 7.89423 8.83093 7.32417 8.40253 6.8969ZM7.60127 9.3007L3.06793 13.834C2.6384 14.2624 1.89493 14.2624 1.4654 13.834C1.0234 13.392 1.0234 12.6735 1.4654 12.2315L5.19747 8.49943L1.4654 4.76737C1.2512 4.55317 1.13333 4.2687 1.13333 3.9661C1.13333 3.6635 1.2512 3.37903 1.4654 3.16483C1.6864 2.94383 1.97653 2.83277 2.26667 2.83277C2.5568 2.83277 2.84693 2.94383 3.06793 3.1637L7.60127 7.69703C7.81547 7.91237 7.93333 8.19683 7.93333 8.49943C7.93333 8.80203 7.81547 9.0865 7.60127 9.3007Z" fill="#FF7C02"/>
</svg>
