<svg width="41" height="41" viewBox="0 0 41 41" fill="none" xmlns="http://www.w3.org/2000/svg">
<g clip-path="url(#clip0)">
<path d="M39.4028 7.73872C39.6971 7.44436 39.8181 7.01858 39.7224 6.61338C39.6267 6.20819 39.3282 5.88147 38.9333 5.74982L31.289 3.20174C30.8575 3.058 30.3816 3.17027 30.0598 3.49194C29.7381 3.8137 29.6258 4.28952 29.7696 4.72114L32.3177 12.3654C32.5982 13.2068 33.6722 13.4693 34.3066 12.8349L35.9403 11.2011C37.6829 14.0546 38.5977 17.2421 38.5977 20.4998C38.5977 30.4789 30.4791 38.5975 20.5 38.5975C19.8366 38.5975 19.2988 39.1353 19.2988 39.7986C19.2988 40.462 19.8366 40.9998 20.5 40.9998C31.7877 40.9998 41 31.7868 41 20.4998C41 16.608 39.8554 12.8123 37.6818 9.45968L39.4028 7.73872ZM33.9822 9.76189L32.8084 6.24054L36.3298 7.41433L33.9822 9.76189Z" fill="#FFAB00"/>
<path d="M1.23176 33.0173C0.937394 33.3116 0.816397 33.7374 0.91209 34.1426C1.00778 34.5478 1.30631 34.8745 1.70126 35.0062L9.34544 37.5542C9.7753 37.6975 10.2515 37.5872 10.5746 37.264C10.8964 36.9424 11.0087 36.4665 10.8648 36.0348L8.31675 28.3907C8.18511 27.9957 7.85831 27.6971 7.45319 27.6015C7.04792 27.5058 6.62222 27.6269 6.32785 27.9212L4.8344 29.4146C3.23956 26.6519 2.40234 23.5977 2.40234 20.5C2.40234 10.5209 10.5209 2.40234 20.5 2.40234C21.1634 2.40234 21.7012 1.86454 21.7012 1.20117C21.7012 0.537805 21.1634 0 20.5 0C9.21227 0 0 9.21299 0 20.5C0 24.2303 1.06344 27.8971 3.08301 31.1659L1.23176 33.0173ZM6.65233 30.9941L7.82612 34.5154L4.30476 33.3416L6.65233 30.9941Z" fill="black"/>
<path d="M22.9023 4.88477C19.7912 4.88477 17.2255 7.26269 16.9261 10.2964C16.556 10.4259 16.1926 10.5748 15.8379 10.7443C15.1856 10.0929 14.2855 9.68945 13.293 9.68945C11.306 9.68945 9.68945 11.306 9.68945 13.293C9.68945 14.2855 10.0929 15.1856 10.7443 15.8379C10.0517 17.2865 9.68945 18.8782 9.68945 20.5C9.68945 21.5485 9.83896 22.5797 10.1335 23.5737C9.85073 24.0877 9.68945 24.6777 9.68945 25.3047C9.68945 27.2917 11.306 28.9082 13.293 28.9082C13.4237 28.9082 13.5527 28.9008 13.6798 28.8871C15.6039 30.4538 18.0022 31.3105 20.5 31.3105C21.7524 31.3105 22.9724 31.0991 24.136 30.6829C24.8359 31.0815 25.6444 31.3105 26.5059 31.3105C29.1552 31.3105 31.3105 29.1552 31.3105 26.5059C31.3105 25.6444 31.0815 24.8359 30.6829 24.136C31.0991 22.9724 31.3105 21.7524 31.3105 20.5C31.3105 17.6815 30.226 15.1119 28.4527 13.1855C28.7519 12.4618 28.9082 11.6831 28.9082 10.8906C28.9082 7.57899 26.214 4.88477 22.9023 4.88477ZM22.9023 7.28711C24.8893 7.28711 26.5059 8.90365 26.5059 10.8906C26.5059 11.0901 26.4875 11.2877 26.4553 11.4824C24.7464 10.3501 22.699 9.68945 20.5 9.68945C20.1613 9.68945 19.8241 9.70651 19.489 9.73782C19.971 8.31475 21.3185 7.28711 22.9023 7.28711ZM13.293 12.0918C13.9553 12.0918 14.4941 12.6306 14.4941 13.293C14.4941 13.9553 13.9553 14.4941 13.293 14.4941C12.6306 14.4941 12.0918 13.9553 12.0918 13.293C12.0918 12.6306 12.6306 12.0918 13.293 12.0918ZM12.0918 25.3047C12.0918 24.6424 12.6306 24.1035 13.293 24.1035C13.9553 24.1035 14.4941 24.6424 14.4941 25.3047C14.4941 25.967 13.9553 26.5059 13.293 26.5059C12.6306 26.5059 12.0918 25.967 12.0918 25.3047ZM26.5059 28.9082C25.1812 28.9082 24.1035 27.8305 24.1035 26.5059C24.1035 25.1812 25.1812 24.1035 26.5059 24.1035C27.8305 24.1035 28.9082 25.1812 28.9082 26.5059C28.9082 27.8305 27.8305 28.9082 26.5059 28.9082ZM28.7267 22.2473C28.0619 21.8992 27.3068 21.7012 26.5059 21.7012C23.8566 21.7012 21.7012 23.8566 21.7012 26.5059C21.7012 27.3068 21.8992 28.0619 22.2473 28.7267C21.6773 28.847 21.0935 28.9082 20.5 28.9082C18.9088 28.9082 17.3696 28.4613 16.0425 27.6303C16.5746 27.0021 16.8965 26.1905 16.8965 25.3047C16.8965 23.3177 15.2799 21.7012 13.293 21.7012C12.9135 21.7012 12.5477 21.7605 12.2039 21.8697C12.1302 21.4195 12.0918 20.9621 12.0918 20.5C12.0918 19.2387 12.3731 18.0015 12.9108 16.8761C13.0365 16.8894 13.1639 16.8965 13.293 16.8965C15.2799 16.8965 16.8965 15.2799 16.8965 13.293C16.8965 13.1639 16.8894 13.0364 16.8761 12.9108C18.0015 12.3731 19.2387 12.0918 20.5 12.0918C25.1363 12.0918 28.9082 15.8637 28.9082 20.5C28.9082 21.0935 28.847 21.6773 28.7267 22.2473Z" fill="black"/>
</g>
<defs>
<clipPath id="clip0">
<rect width="41" height="41" fill="white"/>
</clipPath>
</defs>
</svg>
