<svg width="41" height="41" viewBox="0 0 41 41" fill="none" xmlns="http://www.w3.org/2000/svg">
<g clip-path="url(#clip0)">
<path d="M20.5002 5.06909C20.5001 5.06909 20.5001 5.06909 20.5002 5.06909C15.3339 5.06909 10.4869 7.37029 6.85183 11.5488C6.45792 12.0015 6.45792 12.6753 6.85183 13.1281L13.4075 20.6637C13.6361 20.9264 13.9672 21.0772 14.3153 21.0772H26.6852C27.0334 21.0772 27.3644 20.9264 27.5929 20.6637L34.1486 13.1281C34.5425 12.6753 34.5425 12.0015 34.1486 11.5487C30.5135 7.37029 25.6663 5.06917 20.5002 5.06909ZM19.7932 18.6709L20.5001 17.1397L21.207 18.6709H19.7932ZM26.1371 18.6709H23.8574L21.5925 13.7651C21.3958 13.3391 20.9694 13.0663 20.5001 13.0663C20.0309 13.0663 19.6044 13.3391 19.4077 13.7651L17.1429 18.6709H14.8632L9.37344 12.3606C10.0593 11.6564 10.787 11.0239 11.5495 10.4653L12.5853 11.7078C12.8233 11.9933 13.1654 12.1406 13.5101 12.1406C13.7817 12.1406 14.0549 12.049 14.2798 11.8615C14.7902 11.436 14.859 10.6774 14.4336 10.167L13.6112 9.18052C15.393 8.25066 17.3116 7.68719 19.297 7.52493V9.00671C19.297 9.67116 19.8357 10.2098 20.5001 10.2098C21.1646 10.2098 21.7032 9.67116 21.7032 9.00671V7.52493C23.6886 7.68719 25.6072 8.25066 27.389 9.18052L26.5666 10.167C26.1411 10.6774 26.21 11.4361 26.7203 11.8615C26.9454 12.049 27.2185 12.1406 27.4902 12.1406C27.8348 12.1406 28.1769 11.9932 28.4149 11.7078L29.4507 10.4653C30.2131 11.0239 30.9409 11.6564 31.6267 12.3606L26.1371 18.6709Z" fill="#FFAB00"/>
<path d="M37.3736 2.90709C35.7081 1.05956 33.3264 0 30.839 0H10.1611C7.67377 0 5.29205 1.05956 3.62659 2.90701C1.96113 4.75447 1.15343 7.233 1.41042 9.70705L3.84251 33.1116C4.30981 37.6087 8.07177 41 12.5931 41H28.407C32.9283 41 36.6902 37.6088 37.1576 33.1116L39.5896 9.70713C39.8467 7.23308 39.0389 4.75455 37.3736 2.90709ZM37.1962 9.45832L34.7642 32.8629C34.4247 36.13 31.6916 38.5937 28.407 38.5937H21.7032V31.3774C21.7032 30.713 21.1645 30.1743 20.5001 30.1743C19.8356 30.1743 19.2969 30.713 19.2969 31.3774V38.5937H12.5931C9.30843 38.5937 6.57539 36.13 6.23587 32.8629L3.80385 9.45832C3.61705 7.66092 4.20386 5.86039 5.41381 4.51817C6.62376 3.17603 8.35403 2.40627 10.1611 2.40627H30.839C32.646 2.40627 34.3764 3.17603 35.5863 4.51825C36.7963 5.86039 37.383 7.661 37.1962 9.45832Z" fill="black"/>
</g>
<defs>
<clipPath id="clip0">
<rect width="41" height="41" fill="white"/>
</clipPath>
</defs>
</svg>
