<svg width="43" height="43" viewBox="0 0 43 43" fill="none" xmlns="http://www.w3.org/2000/svg">
<path d="M34.7703 12.4927C35.234 12.4927 35.6101 12.1167 35.6101 11.6528V2.51953C35.6101 1.13026 34.4799 0 33.0906 0H2.52026C1.13099 0 0.000732422 1.13026 0.000732422 2.51953V40.4805C0.000732422 41.8697 1.13099 43 2.52026 43H33.0906C34.4799 43 35.6101 41.8697 35.6101 40.4805V34.2932C35.6101 33.8293 35.234 33.4533 34.7703 33.4533C34.3065 33.4533 33.9304 33.8293 33.9304 34.2932V40.4805C33.9304 40.9436 33.5537 41.3203 33.0906 41.3203H2.52026C2.05717 41.3203 1.68042 40.9436 1.68042 40.4805V2.51953C1.68042 2.05644 2.05717 1.67969 2.52026 1.67969H33.0906C33.5537 1.67969 33.9304 2.05644 33.9304 2.51953V11.6528C33.9304 12.1167 34.3065 12.4927 34.7703 12.4927Z" fill="black"/>
<path d="M17.8052 4.53516C13.5447 4.53516 10.0786 8.00128 10.0786 12.2617C10.0786 14.4719 11.0117 16.4681 12.5043 17.8777C12.5322 17.9076 12.5619 17.9359 12.5944 17.9617C13.9694 19.2197 15.7991 19.9882 17.8051 19.9882C19.8111 19.9882 21.6408 19.2196 23.0157 17.9617C23.0482 17.9359 23.078 17.9075 23.1059 17.8777C24.5987 16.4681 25.5317 14.4719 25.5317 12.2617C25.5317 8.00128 22.0656 4.53516 17.8052 4.53516ZM17.8052 18.3086C16.4338 18.3086 15.1682 17.849 14.1526 17.0767C14.8908 15.7678 16.2682 14.9492 17.8052 14.9492C19.3422 14.9492 20.7196 15.7678 21.4577 17.0767C20.4421 17.849 19.1766 18.3086 17.8052 18.3086ZM16.4614 11.9258V11.3799C16.4614 10.639 17.0643 10.0361 17.8052 10.0361C18.5461 10.0361 19.1489 10.639 19.1489 11.3799V11.9258C19.1489 12.6667 18.5461 13.2695 17.8052 13.2695C17.0643 13.2695 16.4614 12.6667 16.4614 11.9258ZM22.6712 15.8464C22.0518 14.9278 21.1934 14.2133 20.1968 13.7723C20.5924 13.261 20.8286 12.6207 20.8286 11.9258V11.3799C20.8286 9.71271 19.4723 8.35645 17.8052 8.35645C16.138 8.35645 14.7817 9.71271 14.7817 11.3799V11.9258C14.7817 12.6207 15.018 13.261 15.4136 13.7723C14.4169 14.2133 13.5585 14.9278 12.9391 15.8464C12.1976 14.8426 11.7583 13.6027 11.7583 12.2617C11.7583 8.92745 14.4709 6.21484 17.8052 6.21484C21.1394 6.21484 23.852 8.92745 23.852 12.2617C23.852 13.6027 23.4127 14.8426 22.6712 15.8464Z" fill="#FFAB00"/>
<path d="M22.3403 36.7852H17.8052C17.3414 36.7852 16.9653 37.1612 16.9653 37.625C16.9653 38.0888 17.3414 38.4648 17.8052 38.4648H22.3403C22.8041 38.4648 23.1802 38.0888 23.1802 37.625C23.1802 37.1612 22.8041 36.7852 22.3403 36.7852Z" fill="black"/>
<path d="M22.3403 32.082H10.4146C9.95079 32.082 9.57471 32.458 9.57471 32.9219C9.57471 33.3857 9.95079 33.7617 10.4146 33.7617H22.3403C22.8041 33.7617 23.1802 33.3857 23.1802 32.9219C23.1802 32.458 22.8041 32.082 22.3403 32.082Z" fill="black"/>
<path d="M22.3403 27.3789H10.4146C9.95079 27.3789 9.57471 27.7549 9.57471 28.2188C9.57471 28.6826 9.95079 29.0586 10.4146 29.0586H22.3403C22.8041 29.0586 23.1802 28.6826 23.1802 28.2188C23.1802 27.7549 22.8041 27.3789 22.3403 27.3789Z" fill="black"/>
<path d="M7.42143 22.9219C7.2653 22.7656 7.04862 22.6758 6.8269 22.6758C6.60594 22.6758 6.38926 22.7656 6.23313 22.9219C6.07692 23.0781 5.98706 23.2947 5.98706 23.5156C5.98706 23.7365 6.07684 23.9532 6.23313 24.1094C6.39019 24.2656 6.60594 24.3555 6.8269 24.3555C7.04862 24.3555 7.26446 24.2656 7.42143 24.1094C7.57764 23.9532 7.66759 23.7365 7.66759 23.5156C7.66759 23.2947 7.57772 23.0781 7.42143 22.9219Z" fill="black"/>
<path d="M7.42143 27.625C7.26446 27.4688 7.04862 27.3789 6.8269 27.3789C6.60594 27.3789 6.39019 27.4688 6.23313 27.625C6.07692 27.7812 5.98706 27.9979 5.98706 28.2188C5.98706 28.4396 6.07684 28.6563 6.23313 28.8125C6.39019 28.9687 6.60594 29.0586 6.8269 29.0586C7.04862 29.0586 7.26446 28.9687 7.42143 28.8125C7.57764 28.6563 7.66759 28.4396 7.66759 28.2188C7.66759 27.9979 7.57772 27.7812 7.42143 27.625Z" fill="black"/>
<path d="M7.42143 32.3281C7.26446 32.1719 7.04862 32.082 6.8269 32.082C6.60594 32.082 6.39019 32.1719 6.23313 32.3281C6.07692 32.4843 5.98706 32.701 5.98706 32.9219C5.98706 33.1428 6.07684 33.3594 6.23313 33.5156C6.38926 33.6719 6.60594 33.7617 6.8269 33.7617C7.04862 33.7617 7.2653 33.6719 7.42143 33.5156C7.57764 33.3594 7.66759 33.1428 7.66759 32.9219C7.66759 32.701 7.57772 32.4843 7.42143 32.3281Z" fill="black"/>
<path d="M22.3403 22.6758H10.4146C9.95079 22.6758 9.57471 23.0518 9.57471 23.5156C9.57471 23.9795 9.95079 24.3555 10.4146 24.3555H22.3403C22.8041 24.3555 23.1802 23.9795 23.1802 23.5156C23.1802 23.0518 22.8041 22.6758 22.3403 22.6758Z" fill="black"/>
<path d="M41.2366 10.9448C40.4207 10.4737 39.4701 10.3486 38.5599 10.5924C37.6499 10.8363 36.8891 11.42 36.4181 12.2359L25.8494 30.5414C25.7915 30.6417 25.7549 30.753 25.742 30.8681L24.9981 37.5318C24.9612 37.8634 25.1239 38.1855 25.4128 38.3523C25.5432 38.4276 25.6881 38.4649 25.8327 38.4649C26.0084 38.4649 26.1834 38.4099 26.3308 38.3013L31.7296 34.3251C31.8229 34.2564 31.901 34.1692 31.9589 34.0688L42.5276 15.7633C43.5001 14.0789 42.921 11.9173 41.2366 10.9448ZM26.8804 35.8104L27.2689 32.3307L29.6996 33.7341L26.8804 35.8104ZM30.9242 32.5016L27.724 30.6539L36.2052 15.9642L39.4054 17.8118L30.9242 32.5016ZM41.073 14.9234L40.2451 16.3572L37.0449 14.5096L37.8727 13.0757C38.1195 12.6483 38.5179 12.3426 38.9946 12.2149C39.4715 12.0871 39.9693 12.1527 40.3966 12.3995C40.824 12.6462 41.1297 13.0446 41.2575 13.5213C41.3852 13.998 41.3197 14.496 41.073 14.9234Z" fill="black"/>
</svg>
