<svg width="32" height="32" viewBox="0 0 32 32" fill="none" xmlns="http://www.w3.org/2000/svg">
<g clip-path="url(#clip0)">
<path d="M2.77851 9.94845L3.44734 6.60559L5.30961 7.3511C6.94357 8.00517 8.68622 8.61787 10.5012 9.17669C11.3029 6.99497 12.5141 4.82657 14.1099 2.71829L16.1673 0L17.5193 1.4819C19.6743 3.84405 22.1062 6.14021 24.9539 8.50155C27.2015 10.3652 28.7927 12.9692 29.4345 15.8338C30.0961 18.7871 29.748 21.7914 28.4277 24.5216L24.8111 31.9999H20.8555C17.3976 31.9999 14.3389 31.4697 11.7644 30.4238C9.32348 29.4322 7.30351 27.9751 5.76056 26.093C2.54057 22.165 1.48156 16.4314 2.77851 9.94845ZM5.97056 9.61582C7.20408 12.1017 8.74703 14.568 10.5774 16.9724C12.459 19.4439 14.6449 21.8556 17.0745 24.1405C19.6087 26.5238 21.8875 28.2739 23.2856 29.2803V23.3435C23.2856 20.7383 22.4317 18.2853 20.816 16.2496C19.2477 14.2735 17.0437 12.8546 14.6097 12.2542C13.6224 12.0107 12.652 11.7542 11.7135 11.489L11.7119 11.4941L10.8548 11.2414C10.8466 11.239 10.8384 11.2367 10.8303 11.2343V11.2342C9.1481 10.7381 7.52014 10.1951 5.97056 9.61582ZM27.6049 16.2438C27.0534 13.782 25.6868 11.545 23.7571 9.94495C20.9153 7.58848 18.4742 5.29126 16.302 2.92892L15.6049 3.84987C14.1496 5.77258 13.0427 7.73886 12.3048 9.70757C13.1978 9.95889 14.1203 10.2023 15.0589 10.4338C17.8935 11.133 20.4598 12.7846 22.2847 15.084C24.1662 17.4547 25.1606 20.3108 25.1606 23.3436V26.9706L26.7397 23.7053C27.8739 21.36 28.1731 18.7799 27.6049 16.2438ZM7.2107 24.9043C8.55297 26.5417 10.3224 27.8143 12.4701 28.6867C14.8194 29.6411 17.6407 30.125 20.8555 30.125H21.2648C19.8479 29.0602 17.9326 27.5188 15.8229 25.5374C13.3123 23.1796 11.0512 20.6875 9.10242 18.1303C7.29939 15.7644 5.76181 13.3368 4.50966 10.8847C3.49378 16.5692 4.44529 21.5309 7.2107 24.9043Z" fill="#FFAB00"/>
</g>
<defs>
<clipPath id="clip0">
<rect width="32" height="32" fill="white" transform="matrix(-1 0 0 1 32 0)"/>
</clipPath>
</defs>
</svg>
