<svg width="196" height="81" viewBox="0 0 196 81" fill="none" xmlns="http://www.w3.org/2000/svg">
<path d="M34.7314 40.3525C36.001 41.1826 37.0264 42.291 37.8076 43.6777C38.5889 45.0547 38.9795 46.7441 38.9795 48.7461C38.9795 50.5039 38.6279 52.0371 37.9248 53.3457C37.2314 54.6445 36.3086 55.709 35.1562 56.5391C33.9844 57.3691 32.6514 57.9893 31.1572 58.3994C29.6729 58.7998 28.1152 59 26.4844 59H16.0107V57.8574C16.3232 57.8477 16.7139 57.8184 17.1826 57.7695C17.6514 57.7207 17.9639 57.6621 18.1201 57.5938C18.4717 57.4473 18.7158 57.252 18.8525 57.0078C18.9893 56.7539 19.0576 56.4512 19.0576 56.0996V41.3633C19.0576 41.0312 18.9941 40.7334 18.8672 40.4697C18.7402 40.1963 18.4912 39.9766 18.1201 39.8105C17.749 39.6445 17.3535 39.5322 16.9336 39.4736C16.5234 39.415 16.2061 39.376 15.9814 39.3564V38.2139H27.041C28.2227 38.2139 29.4873 38.3652 30.835 38.668C32.1826 38.9707 33.4814 39.5322 34.7314 40.3525ZM31.7432 55.25C32.2217 54.4688 32.5684 53.541 32.7832 52.4668C33.0078 51.3828 33.1201 50.1377 33.1201 48.7314C33.1201 47.3545 32.9736 46.0996 32.6807 44.9668C32.3877 43.834 31.958 42.8672 31.3916 42.0664C30.8252 41.2656 30.1172 40.6455 29.2676 40.2061C28.4277 39.7666 27.4707 39.5469 26.3965 39.5469C26.0547 39.5469 25.6641 39.5566 25.2246 39.5762C24.7949 39.5859 24.4727 39.5957 24.2578 39.6055V55.3818C24.2578 55.7334 24.3018 56.0459 24.3896 56.3193C24.4873 56.583 24.6484 56.8174 24.873 57.0225C25.0977 57.2275 25.3711 57.3887 25.6934 57.5059C26.0254 57.6133 26.4551 57.667 26.9824 57.667C28.0859 57.667 29.0332 57.4619 29.8242 57.0518C30.6152 56.6416 31.2549 56.041 31.7432 55.25ZM59.9854 58.6924L52.998 59.1172L52.7783 58.9121V56.9932H52.6904C52.3584 57.2959 52.0312 57.5938 51.709 57.8867C51.3965 58.1699 51.0205 58.4287 50.5811 58.6631C50.083 58.9268 49.6094 59.1221 49.1602 59.249C48.7207 59.376 48.0762 59.4395 47.2266 59.4395C45.752 59.4395 44.6191 58.9951 43.8281 58.1064C43.0469 57.2178 42.6562 55.9629 42.6562 54.3418V47.75C42.6562 47.3691 42.583 47.0615 42.4365 46.8271C42.29 46.583 42.0947 46.3682 41.8506 46.1826C41.6553 46.0361 41.4014 45.9336 41.0889 45.875C40.7764 45.8066 40.4932 45.7627 40.2393 45.7432V44.6738L47.3438 44.293L47.5049 44.5127V54.2539C47.5049 55.2598 47.6953 56.002 48.0762 56.4805C48.4668 56.959 48.999 57.1982 49.6729 57.1982C50.3662 57.1982 50.9863 57.0176 51.5332 56.6562C52.0898 56.2949 52.4951 55.9092 52.749 55.499V47.6035C52.749 47.2715 52.6855 46.9736 52.5586 46.71C52.4316 46.4463 52.2461 46.2314 52.002 46.0654C51.8262 45.9482 51.5723 45.8701 51.2402 45.8311C50.918 45.792 50.5859 45.7627 50.2441 45.7432V44.6738L57.3486 44.293L57.5684 44.5127V55.8213C57.5684 56.1631 57.6367 56.4561 57.7734 56.7002C57.9102 56.9346 58.1104 57.1348 58.374 57.3008C58.5596 57.418 58.7988 57.501 59.0918 57.5498C59.3945 57.5889 59.6924 57.6133 59.9854 57.623V58.6924ZM76.1279 46.1973C76.8506 46.8711 77.4023 47.6768 77.7832 48.6143C78.1641 49.5518 78.3545 50.5674 78.3545 51.6611C78.3545 52.7451 78.1641 53.7705 77.7832 54.7373C77.4121 55.6943 76.8652 56.5146 76.1426 57.1982C75.3711 57.9307 74.4482 58.4922 73.374 58.8828C72.3096 59.2734 71.0889 59.4688 69.7119 59.4688C68.5205 59.4688 67.4219 59.2979 66.416 58.9561C65.4199 58.6143 64.5361 58.1016 63.7646 57.418C63.0225 56.7637 62.4365 55.958 62.0068 55.001C61.5771 54.0342 61.3623 52.9551 61.3623 51.7637C61.3623 50.5918 61.5479 49.5518 61.9189 48.6436C62.2998 47.7256 62.8662 46.9102 63.6182 46.1973C64.3408 45.5137 65.2295 44.9863 66.2842 44.6152C67.3486 44.2344 68.5352 44.0439 69.8438 44.0439C71.2109 44.0439 72.4121 44.2344 73.4473 44.6152C74.4922 44.9863 75.3857 45.5137 76.1279 46.1973ZM72.3779 56.3486C72.5928 55.8018 72.749 55.1377 72.8467 54.3564C72.9541 53.5752 73.0078 52.667 73.0078 51.6318C73.0078 50.9482 72.959 50.167 72.8613 49.2881C72.7637 48.4092 72.6172 47.7158 72.4219 47.208C72.1875 46.5928 71.8604 46.1094 71.4404 45.7578C71.0303 45.4062 70.5078 45.2305 69.873 45.2305C69.1797 45.2305 68.623 45.4209 68.2031 45.8018C67.793 46.1826 67.4756 46.6758 67.251 47.2812C67.0459 47.8379 66.9043 48.4922 66.8262 49.2441C66.748 49.9863 66.709 50.7627 66.709 51.5732C66.709 52.6377 66.7432 53.5215 66.8115 54.2246C66.8799 54.918 67.0459 55.6162 67.3096 56.3193C67.5342 56.9248 67.8564 57.4033 68.2764 57.7549C68.6963 58.1064 69.2285 58.2822 69.873 58.2822C70.459 58.2822 70.9619 58.1211 71.3818 57.7988C71.8018 57.4668 72.1338 56.9834 72.3779 56.3486ZM104.282 39.3564C104.009 39.3857 103.618 39.4395 103.11 39.5176C102.603 39.5957 102.144 39.7861 101.733 40.0889C101.372 40.3525 101.113 40.8066 100.957 41.4512C100.811 42.0859 100.737 43.0234 100.737 44.2637V59.1172H98.1299L85.1807 43.0479V52.8037C85.1807 54.0146 85.2588 54.9375 85.415 55.5723C85.5811 56.1973 85.8447 56.6562 86.2061 56.9492C86.4697 57.1641 86.8896 57.3545 87.4658 57.5205C88.042 57.6865 88.501 57.7988 88.8428 57.8574V59H79.9072V57.8574C80.2881 57.8281 80.7227 57.7598 81.2109 57.6523C81.709 57.5352 82.124 57.3594 82.4561 57.125C82.8369 56.8418 83.0957 56.417 83.2324 55.8506C83.3789 55.2744 83.4521 54.3125 83.4521 52.9648V43.1211C83.4521 42.6328 83.374 42.1738 83.2178 41.7441C83.0713 41.3047 82.8369 40.9287 82.5146 40.6162C82.1729 40.2842 81.7773 40.0254 81.3281 39.8398C80.8887 39.6445 80.3857 39.4932 79.8193 39.3857V38.2139H87.6416L99.0088 52.2764V44.4102C99.0088 43.1602 98.9258 42.2324 98.7598 41.627C98.5938 41.0117 98.3301 40.5576 97.9688 40.2646C97.6855 40.04 97.2656 39.8496 96.709 39.6934C96.1523 39.5273 95.7031 39.415 95.3613 39.3564V38.2139H104.282V39.3564ZM122.183 58.6924C121.753 58.8779 121.245 59.0488 120.659 59.2051C120.073 59.3613 119.453 59.4395 118.799 59.4395C117.598 59.4395 116.714 59.2637 116.147 58.9121C115.581 58.5508 115.195 58.0381 114.99 57.374H114.902C114.57 57.7061 114.248 57.9893 113.936 58.2236C113.633 58.458 113.306 58.6582 112.954 58.8242C112.495 59.0391 112.051 59.1953 111.621 59.293C111.201 59.4004 110.61 59.4541 109.849 59.4541C108.716 59.4541 107.749 59.1221 106.948 58.458C106.147 57.7842 105.747 56.8955 105.747 55.792C105.747 55.1572 105.835 54.6201 106.011 54.1807C106.187 53.7314 106.436 53.3359 106.758 52.9941C107.051 52.6816 107.388 52.4229 107.769 52.2178C108.159 52.0127 108.584 51.8223 109.043 51.6465C109.922 51.3242 110.977 50.9922 112.207 50.6504C113.438 50.2988 114.336 49.9863 114.902 49.7129V48.3066C114.902 48.0625 114.883 47.7402 114.844 47.3398C114.805 46.9395 114.722 46.6025 114.595 46.3291C114.458 46.0166 114.243 45.7529 113.95 45.5381C113.657 45.3232 113.271 45.2158 112.793 45.2158C112.363 45.2158 112.002 45.2793 111.709 45.4062C111.426 45.5234 111.196 45.6455 111.021 45.7725C111.05 45.9678 111.133 46.2656 111.27 46.666C111.406 47.0664 111.475 47.4521 111.475 47.8232C111.475 47.9893 111.431 48.1992 111.343 48.4531C111.255 48.6973 111.128 48.8926 110.962 49.0391C110.737 49.2344 110.483 49.3857 110.2 49.4932C109.927 49.6006 109.502 49.6543 108.926 49.6543C108.105 49.6543 107.485 49.459 107.065 49.0684C106.646 48.668 106.436 48.1504 106.436 47.5156C106.436 46.9688 106.65 46.4805 107.08 46.0508C107.52 45.6113 108.052 45.25 108.677 44.9668C109.292 44.6738 110 44.4492 110.801 44.293C111.602 44.127 112.344 44.0439 113.027 44.0439C113.975 44.0439 114.844 44.1025 115.635 44.2197C116.426 44.3271 117.139 44.5566 117.773 44.9082C118.379 45.25 118.857 45.748 119.209 46.4023C119.57 47.0469 119.751 47.8916 119.751 48.9365C119.751 50.04 119.727 51.3486 119.678 52.8623C119.639 54.376 119.619 55.3721 119.619 55.8506C119.619 56.29 119.683 56.6367 119.81 56.8906C119.946 57.1445 120.151 57.335 120.425 57.4619C120.591 57.54 120.85 57.5889 121.201 57.6084C121.562 57.6182 121.89 57.623 122.183 57.623V58.6924ZM114.902 51.0605C114.355 51.2461 113.813 51.4609 113.276 51.7051C112.739 51.9395 112.3 52.1885 111.958 52.4521C111.597 52.7256 111.313 53.0771 111.108 53.5068C110.903 53.9268 110.801 54.4248 110.801 55.001C110.801 55.7627 110.972 56.3145 111.313 56.6562C111.665 56.998 112.095 57.1689 112.603 57.1689C113.14 57.1689 113.579 57.0615 113.921 56.8467C114.272 56.6221 114.58 56.3486 114.844 56.0264L114.902 51.0605ZM134.209 58.3262C133.584 58.5996 132.915 58.8438 132.202 59.0586C131.489 59.2832 130.62 59.3955 129.595 59.3955C128.071 59.3955 126.938 59.0244 126.196 58.2822C125.464 57.54 125.098 56.4805 125.098 55.1035V46.1094H122.461V44.5273H125.156V40.0889H129.917V44.5273H134.019V46.1094H129.946V54.1367C129.946 55.2793 130.103 56.0898 130.415 56.5684C130.737 57.0469 131.309 57.2861 132.129 57.2861C132.393 57.2861 132.759 57.2666 133.228 57.2275C133.696 57.1885 134.023 57.1445 134.209 57.0957V58.3262ZM154.351 58.6924L147.363 59.1172L147.144 58.9121V56.9932H147.056C146.724 57.2959 146.396 57.5938 146.074 57.8867C145.762 58.1699 145.386 58.4287 144.946 58.6631C144.448 58.9268 143.975 59.1221 143.525 59.249C143.086 59.376 142.441 59.4395 141.592 59.4395C140.117 59.4395 138.984 58.9951 138.193 58.1064C137.412 57.2178 137.021 55.9629 137.021 54.3418V47.75C137.021 47.3691 136.948 47.0615 136.802 46.8271C136.655 46.583 136.46 46.3682 136.216 46.1826C136.021 46.0361 135.767 45.9336 135.454 45.875C135.142 45.8066 134.858 45.7627 134.604 45.7432V44.6738L141.709 44.293L141.87 44.5127V54.2539C141.87 55.2598 142.061 56.002 142.441 56.4805C142.832 56.959 143.364 57.1982 144.038 57.1982C144.731 57.1982 145.352 57.0176 145.898 56.6562C146.455 56.2949 146.86 55.9092 147.114 55.499V47.6035C147.114 47.2715 147.051 46.9736 146.924 46.71C146.797 46.4463 146.611 46.2314 146.367 46.0654C146.191 45.9482 145.938 45.8701 145.605 45.8311C145.283 45.792 144.951 45.7627 144.609 45.7432V44.6738L151.714 44.293L151.934 44.5127V55.8213C151.934 56.1631 152.002 56.4561 152.139 56.7002C152.275 56.9346 152.476 57.1348 152.739 57.3008C152.925 57.418 153.164 57.501 153.457 57.5498C153.76 57.5889 154.058 57.6133 154.351 57.623V58.6924ZM170.127 47.1494C170.127 47.8916 169.897 48.5459 169.438 49.1123C168.979 49.6689 168.374 49.9473 167.622 49.9473C166.909 49.9473 166.304 49.7666 165.806 49.4053C165.317 49.0439 165.073 48.5117 165.073 47.8086C165.073 47.4668 165.098 47.2031 165.146 47.0176C165.195 46.8223 165.239 46.6416 165.278 46.4756C164.829 46.4951 164.355 46.6514 163.857 46.9443C163.359 47.2373 162.92 47.6279 162.539 48.1162V56.1582C162.539 56.5 162.593 56.7832 162.7 57.0078C162.808 57.2324 162.988 57.4082 163.242 57.5352C163.457 57.6426 163.804 57.7354 164.282 57.8135C164.771 57.8818 165.122 57.9209 165.337 57.9307V59H155.537V57.9307C155.781 57.9111 156.025 57.8867 156.27 57.8574C156.523 57.8184 156.738 57.7695 156.914 57.7109C157.227 57.6035 157.441 57.4375 157.559 57.2129C157.676 56.9883 157.734 56.6953 157.734 56.334V47.8086C157.734 47.457 157.651 47.1445 157.485 46.8711C157.319 46.5879 157.119 46.3633 156.885 46.1973C156.709 46.0801 156.484 45.9824 156.211 45.9043C155.947 45.8262 155.654 45.7725 155.332 45.7432V44.6738L162.319 44.293L162.539 44.5127V46.6367H162.598C163.271 45.8555 163.984 45.2451 164.736 44.8057C165.498 44.3564 166.289 44.1318 167.109 44.1318C168.018 44.1318 168.745 44.415 169.292 44.9814C169.849 45.5381 170.127 46.2607 170.127 47.1494ZM186.899 55.499C186.558 56.0557 186.143 56.583 185.654 57.0811C185.176 57.5693 184.629 57.9893 184.014 58.3408C183.359 58.7119 182.695 58.9902 182.021 59.1758C181.357 59.3711 180.591 59.4688 179.722 59.4688C178.276 59.4688 177.026 59.2637 175.972 58.8535C174.927 58.4434 174.062 57.8916 173.379 57.1982C172.695 56.5049 172.183 55.6895 171.841 54.752C171.509 53.8047 171.343 52.7793 171.343 51.6758C171.343 50.6797 171.523 49.7275 171.885 48.8193C172.256 47.9014 172.778 47.0859 173.452 46.373C174.116 45.6797 174.951 45.1182 175.957 44.6885C176.973 44.2588 178.105 44.0439 179.355 44.0439C180.723 44.0439 181.846 44.21 182.725 44.542C183.604 44.874 184.331 45.333 184.907 45.9189C185.464 46.4756 185.869 47.1348 186.123 47.8965C186.377 48.6484 186.504 49.4395 186.504 50.2695V51.2217H176.602C176.602 53.2236 176.987 54.7471 177.759 55.792C178.53 56.8369 179.756 57.3594 181.436 57.3594C182.354 57.3594 183.179 57.1104 183.911 56.6123C184.644 56.1045 185.269 55.4648 185.786 54.6934L186.899 55.499ZM181.304 49.9326C181.304 49.3467 181.274 48.7461 181.216 48.1309C181.157 47.5156 181.055 47.0127 180.908 46.6221C180.742 46.1631 180.513 45.8164 180.22 45.582C179.937 45.3477 179.575 45.2305 179.136 45.2305C178.384 45.2305 177.783 45.6113 177.334 46.373C176.885 47.1348 176.641 48.3408 176.602 49.9912L181.304 49.9326Z" fill="black"/>
<g clip-path="url(#clip0)">
<path d="M2.77852 9.94845L3.44734 6.60559L5.30961 7.3511C6.94357 8.00517 8.68622 8.61787 10.5012 9.17669C11.3029 6.99497 12.5141 4.82657 14.1099 2.71829L16.1673 0L17.5193 1.4819C19.6743 3.84405 22.1062 6.14021 24.9539 8.50155C27.2015 10.3652 28.7927 12.9692 29.4345 15.8338C30.0961 18.7871 29.748 21.7914 28.4277 24.5216L24.8111 31.9999H20.8555C17.3976 31.9999 14.3389 31.4697 11.7644 30.4238C9.32348 29.4322 7.30351 27.9751 5.76056 26.093C2.54057 22.165 1.48156 16.4314 2.77852 9.94845V9.94845ZM5.97056 9.61582C7.20408 12.1017 8.74703 14.568 10.5774 16.9724C12.459 19.4439 14.6449 21.8555 17.0745 24.1405C19.6087 26.5238 21.8875 28.2739 23.2856 29.2803V23.3435C23.2856 20.7383 22.4317 18.2853 20.816 16.2496C19.2477 14.2735 17.0437 12.8546 14.6097 12.2542C13.6224 12.0107 12.652 11.7542 11.7135 11.489L11.7119 11.4941L10.8548 11.2414C10.8466 11.239 10.8384 11.2367 10.8303 11.2343V11.2342C9.1481 10.7381 7.52014 10.1951 5.97056 9.61582V9.61582ZM27.6049 16.2438C27.0534 13.782 25.6868 11.545 23.7571 9.94495C20.9153 7.58848 18.4742 5.29126 16.302 2.92892L15.6049 3.84987C14.1496 5.77258 13.0427 7.73886 12.3048 9.70757C13.1978 9.95889 14.1203 10.2023 15.0589 10.4338C17.8935 11.133 20.4598 12.7846 22.2847 15.084C24.1662 17.4547 25.1606 20.3108 25.1606 23.3436V26.9706L26.7397 23.7053C27.8739 21.36 28.1731 18.7799 27.6049 16.2438V16.2438ZM7.2107 24.9043C8.55297 26.5417 10.3224 27.8143 12.4701 28.6867C14.8194 29.6411 17.6407 30.125 20.8555 30.125H21.2648C19.8479 29.0602 17.9326 27.5188 15.8229 25.5374C13.3123 23.1796 11.0512 20.6875 9.10242 18.1303C7.29939 15.7644 5.76181 13.3368 4.50966 10.8847C3.49378 16.5692 4.44529 21.5309 7.2107 24.9043V24.9043Z" fill="#688719"/>
</g>
<defs>
<clipPath id="clip0">
<rect width="32" height="32" fill="white" transform="matrix(-1 0 0 1 32 0)"/>
</clipPath>
</defs>
</svg>
