<svg width="123" height="23" viewBox="0 0 123 23" fill="none" xmlns="http://www.w3.org/2000/svg">
<path d="M10.6033 1.81699C10.9701 1.07374 12.0299 1.07374 12.3967 1.81699L14.6471 6.37671C14.7928 6.67185 15.0743 6.87642 15.4 6.92375L20.432 7.65494C21.2522 7.77412 21.5797 8.78209 20.9862 9.36063L17.345 12.9099C17.1094 13.1396 17.0018 13.4706 17.0574 13.795L17.917 18.8066C18.0571 19.6235 17.1997 20.2465 16.4661 19.8608L11.9653 17.4946C11.674 17.3415 11.326 17.3415 11.0347 17.4946L6.53394 19.8608C5.80032 20.2465 4.94288 19.6235 5.08299 18.8066L5.94255 13.795C5.99819 13.4706 5.89064 13.1396 5.65496 12.9099L2.0138 9.36063C1.42028 8.78209 1.74779 7.77412 2.56801 7.65494L7.59997 6.92375C7.92568 6.87642 8.20724 6.67185 8.35291 6.37671L10.6033 1.81699Z" fill="#EB6E00"/>
<path d="M35.6033 1.81699C35.9701 1.07374 37.0299 1.07374 37.3967 1.81699L39.6471 6.37671C39.7928 6.67185 40.0743 6.87642 40.4 6.92375L45.432 7.65494C46.2522 7.77412 46.5797 8.78209 45.9862 9.36063L42.345 12.9099C42.1094 13.1396 42.0018 13.4706 42.0574 13.795L42.917 18.8066C43.0571 19.6235 42.1997 20.2465 41.4661 19.8608L36.9653 17.4946C36.674 17.3415 36.326 17.3415 36.0347 17.4946L31.5339 19.8608C30.8003 20.2465 29.9429 19.6235 30.083 18.8066L30.9426 13.795C30.9982 13.4706 30.8906 13.1396 30.655 12.9099L27.0138 9.36063C26.4203 8.78209 26.7478 7.77412 27.568 7.65494L32.6 6.92375C32.9257 6.87642 33.2072 6.67185 33.3529 6.37671L35.6033 1.81699Z" fill="#EB6E00"/>
<path d="M60.6033 1.81699C60.9701 1.07374 62.0299 1.07374 62.3967 1.81699L64.6471 6.37671C64.7928 6.67185 65.0743 6.87642 65.4 6.92375L70.432 7.65494C71.2522 7.77412 71.5797 8.78209 70.9862 9.36063L67.345 12.9099C67.1094 13.1396 67.0018 13.4706 67.0574 13.795L67.917 18.8066C68.0571 19.6235 67.1997 20.2465 66.4661 19.8608L61.9653 17.4946C61.674 17.3415 61.326 17.3415 61.0347 17.4946L56.5339 19.8608C55.8003 20.2465 54.9429 19.6235 55.083 18.8066L55.9426 13.795C55.9982 13.4706 55.8906 13.1396 55.655 12.9099L52.0138 9.36063C51.4203 8.78209 51.7478 7.77412 52.568 7.65494L57.6 6.92375C57.9257 6.87642 58.2072 6.67185 58.3529 6.37671L60.6033 1.81699Z" fill="#EB6E00"/>
<path d="M85.6033 1.81699C85.9701 1.07374 87.0299 1.07374 87.3967 1.81699L89.6471 6.37671C89.7928 6.67185 90.0743 6.87642 90.4 6.92375L95.432 7.65494C96.2522 7.77412 96.5797 8.78209 95.9862 9.36063L92.345 12.9099C92.1094 13.1396 92.0018 13.4706 92.0574 13.795L92.917 18.8066C93.0571 19.6235 92.1997 20.2465 91.4661 19.8608L86.9653 17.4946C86.674 17.3415 86.326 17.3415 86.0347 17.4946L81.5339 19.8608C80.8003 20.2465 79.9429 19.6235 80.083 18.8066L80.9426 13.795C80.9982 13.4706 80.8906 13.1396 80.655 12.9099L77.0138 9.36063C76.4203 8.78209 76.7478 7.77412 77.568 7.65494L82.6 6.92375C82.9257 6.87642 83.2072 6.67185 83.3529 6.37671L85.6033 1.81699Z" fill="#EB6E00"/>
<path d="M110.603 1.81699C110.97 1.07374 112.03 1.07374 112.397 1.81699L114.647 6.37671C114.793 6.67185 115.074 6.87642 115.4 6.92375L120.432 7.65494C121.252 7.77412 121.58 8.78209 120.986 9.36063L117.345 12.9099C117.109 13.1396 117.002 13.4706 117.057 13.795L117.917 18.8066C118.057 19.6235 117.2 20.2465 116.466 19.8608L111.965 17.4946C111.674 17.3415 111.326 17.3415 111.035 17.4946L106.534 19.8608C105.8 20.2465 104.943 19.6235 105.083 18.8066L105.943 13.795C105.998 13.4706 105.891 13.1396 105.655 12.9099L102.014 9.36063C101.42 8.78209 101.748 7.77412 102.568 7.65494L107.6 6.92375C107.926 6.87642 108.207 6.67185 108.353 6.37671L110.603 1.81699Z" fill="#EB6E00"/>
</svg>
